<svg xmlns="http://www.w3.org/2000/svg" viewBox="0 0 280 40" fill="currentColor" role="img" aria-label="void --news">
  <!--
    void --news — Primary Wordmark (Direction 5: Negative Space O)
    "void": Serif letterforms where the "o" is a hollow outline (the void).
    "--news": Monospace letterforms, regular weight.
    All text as geometric paths — no embedded fonts.
  -->

  <!-- ===== "void" — Serif, bold, condensed. O is hollow. ===== -->
  <g transform="translate(0,2)">
    <!-- v -->
    <polygon points="0,4 5.5,4 14,28 22.5,4 28,4 16.5,36 11.5,36"/>

    <!-- o — THE VOID: hollow outline only, no fill -->
    <ellipse cx="48" cy="20" rx="13" ry="16.5" fill="none" stroke="currentColor" stroke-width="2.2"/>

    <!-- i dot -->
    <rect x="69" y="2" width="5" height="5" rx="0.8"/>
    <!-- i stem -->
    <rect x="69.5" y="11" width="4" height="25" rx="0.5"/>

    <!-- d -->
    <path d="M82,20 C82,10.5 87,3 94,3 C97,3 100,4.5 102,7.5 L102,0 L107,0 L107,36 L102,36 L102,32.5 C100,35.5 97,37 94,37 C87,37 82,29.5 82,20Z M88,20 C88,27.5 90.8,32 95,32 C98,32 100.5,29.5 102,26 L102,14 C100.5,10.5 98,8 95,8 C90.8,8 88,12.5 88,20Z"/>
  </g>

  <!-- ===== "--news" — Monospace, thinner strokes ===== -->
  <g transform="translate(0,2)">
    <!-- First dash -->
    <rect x="122" y="17.5" width="10" height="3" rx="0.5"/>
    <!-- Second dash -->
    <rect x="134" y="17.5" width="10" height="3" rx="0.5"/>

    <!-- n -->
    <path d="M156,12 L159.2,12 L159.2,16 C161,13 163.5,11 167,11 C170,11 172,12.5 173.2,14.8 C174,16.5 174,18.5 174,21 L174,36 L170.8,36 L170.8,21.5 C170.8,18.5 170.5,17 169.5,15.8 C168.5,14.6 167,14 165,14 C162.5,14 160.8,15.5 159.8,17.5 C159.2,18.8 159.2,20 159.2,21.5 L159.2,36 L156,36Z"/>

    <!-- e -->
    <path d="M182,23.5 C182,17.5 185.5,11 192,11 C198.5,11 201.5,17 201.5,23 L201.5,24.5 L185.5,24.5 C185.8,29 188.5,33 192.5,33 C195.5,33 197.5,31 198.8,29 L201,30.5 C199,33.5 196,36 192,36 C186,36 182,30 182,23.5Z M185.5,22 L198,22 C197.5,17.5 195.5,14 192,14 C188.5,14 186.2,17.5 185.5,22Z"/>

    <!-- w -->
    <path d="M208,12 L211.5,12 L217,30 L222.5,12 L225.5,12 L231,30 L236.5,12 L240,12 L232.5,36 L229,36 L223.5,18 L218,36 L214.5,36Z"/>

    <!-- s -->
    <path d="M247,28 C247,24.5 249,22.5 252,21.5 L256.5,20 C259,19 260,17.8 260,16 C260,13.8 258,12 255,12 C252,12 250,13.5 249,15.5 L246.5,14 C248,11.5 251,9.5 255,9.5 C260,9.5 263.5,12.5 263.5,16.5 C263.5,19.5 261.5,21.5 258.5,22.5 L254,24 C251.5,25 250.5,26.5 250.5,28.5 C250.5,31 252.5,33 255.5,33 C258,33 260,31.5 261,29.5 L263.2,31 C261.5,34 258.5,36 255,36 C250.5,36 247,32.5 247,28Z"/>
  </g>
</svg>
